<svg fill="#000000" viewBox="0 0 32 32" version="1.1" xmlns="http://www.w3.org/2000/svg"><g id="SVGRepo_bgCarrier" stroke-width="0"></g><g id="SVGRepo_tracerCarrier" stroke-linecap="round" stroke-linejoin="round"></g><g id="SVGRepo_iconCarrier"> <title>temperature-sun</title> <path d="M8.75 21.367v-15.367c0-0.414-0.336-0.75-0.75-0.75s-0.75 0.336-0.75 0.75v0 15.367c-1.164 0.338-2 1.394-2 2.646 0 1.519 1.231 2.75 2.75 2.75s2.75-1.231 2.75-2.75c0-1.252-0.836-2.308-1.981-2.641l-0.019-0.005zM30.75 16c0-0 0-0.001 0-0.001 0-0.27-0.143-0.507-0.358-0.639l-0.003-0.002-4.402-2.667 1.227-4.998c0.014-0.053 0.021-0.115 0.021-0.178 0-0.207-0.084-0.395-0.219-0.531l0 0c-0.134-0.137-0.321-0.221-0.527-0.221-0.065 0-0.129 0.008-0.189 0.024l0.005-0.001-4.998 1.228-2.666-4.402c-0.134-0.218-0.371-0.361-0.641-0.361s-0.507 0.143-0.639 0.358l-0.002 0.003-2.667 4.402-1.941-0.477v-1.529c0-6.246-9.5-6.246-9.5 0v13.238c-1.222 1.22-1.978 2.906-1.978 4.769 0 3.72 3.016 6.736 6.736 6.736 3.701 0 6.704-2.984 6.736-6.677l0-0.003 2.615 4.319c0.134 0.218 0.371 0.361 0.641 0.361s0.507-0.143 0.639-0.358l0.002-0.003 2.666-4.402 5 1.227c0.052 0.012 0.111 0.019 0.172 0.019 0.209 0 0.398-0.083 0.537-0.217l-0 0c0.135-0.136 0.219-0.324 0.219-0.531 0-0.063-0.008-0.124-0.022-0.183l0.001 0.005-1.227-5 4.402-2.665c0.218-0.134 0.361-0.37 0.361-0.641 0-0 0-0.001 0-0.001v0zM24.654 11.826c-0.641-1.012-1.478-1.842-2.463-2.458l-0.033-0.019 3.302-0.811zM15.591 21.875c-0.629-0.265-1.171-0.6-1.653-1.005l0.010 0.008c-0.331-0.626-0.73-1.164-1.198-1.632l0 0v-6.769c1.156-1.708 3.086-2.815 5.275-2.815 3.507 0 6.349 2.843 6.349 6.349s-2.843 6.349-6.349 6.349c-0.878 0-1.715-0.178-2.475-0.501l0.042 0.016zM18 5.447l1.756 2.899c-0.512-0.12-1.099-0.188-1.703-0.188-0.648 0-1.279 0.079-1.881 0.229l0.054-0.011zM13.872 9.357c-0.422 0.267-0.789 0.549-1.128 0.86l0.006-0.005v-1.131zM8 29.25c-2.9-0-5.25-2.351-5.25-5.251 0-1.553 0.674-2.948 1.745-3.909l0.005-0.004 0.006-0.012c0.13-0.122 0.215-0.29 0.231-0.477l0-0.003c0.001-0.014 0.007-0.024 0.008-0.038l0.006-0.029v-13.52c-0.003-0.053-0.005-0.115-0.005-0.178 0-1.704 1.381-3.085 3.085-3.085 0.060 0 0.12 0.002 0.179 0.005l-0.008-0c0.051-0.003 0.111-0.005 0.17-0.005 1.704 0 3.085 1.381 3.085 3.085 0 0.063-0.002 0.125-0.006 0.186l0-0.008v13.52l0.006 0.029c0 0.014 0.006 0.024 0.008 0.038 0.016 0.19 0.101 0.358 0.23 0.479l0 0 0.006 0.012c1.076 0.966 1.75 2.361 1.75 3.913 0 2.9-2.35 5.25-5.25 5.251h-0zM18 26.553l-1.771-2.924c0.532 0.138 1.145 0.221 1.776 0.229l0.005 0c0.627-0.007 1.231-0.087 1.81-0.231l-0.054 0.011zM22.173 22.655c1.012-0.634 1.844-1.459 2.467-2.433l0.019-0.031 0.802 3.27zM25.662 17.751c0.127-0.525 0.2-1.127 0.2-1.747 0-0.623-0.074-1.229-0.213-1.809l0.011 0.053 2.893 1.752z"></path> </g></svg>